<svg width="18" height="18" viewBox="0 0 18 18" fill="none" xmlns="http://www.w3.org/2000/svg">
<g id="ant-design:star-filled">
<path id="Vector" d="M15.9627 6.20688L11.4996 5.55825L9.50447 1.51352C9.44997 1.40278 9.36032 1.31313 9.24958 1.25864C8.97185 1.12153 8.63435 1.23579 8.49548 1.51352L6.50036 5.55825L2.03728 6.20688C1.91423 6.22446 1.80173 6.28246 1.7156 6.37036C1.61147 6.47738 1.55409 6.62137 1.55606 6.77068C1.55804 6.91999 1.61922 7.06241 1.72614 7.16664L4.95525 10.3149L4.19236 14.7604C4.17446 14.8638 4.18591 14.9702 4.22539 15.0674C4.26487 15.1646 4.3308 15.2489 4.41572 15.3105C4.50063 15.3722 4.60113 15.4089 4.70581 15.4163C4.81049 15.4238 4.91517 15.4018 5.00798 15.3528L8.99997 13.2539L12.992 15.3528C13.1009 15.4108 13.2275 15.4301 13.3488 15.409C13.6547 15.3563 13.8603 15.0663 13.8076 14.7604L13.0447 10.3149L16.2738 7.16664C16.3617 7.08051 16.4197 6.96801 16.4373 6.84496C16.4847 6.53735 16.2703 6.25258 15.9627 6.20688Z" fill="#6D91EE"/>
</g>
</svg>
